# xmcd
#
# Track frame offsets: 
#        183
#        14045
#        27408
#        40408
#        54433
#        67608
#        82270
#        98583
#        114670
#        127795
#        140970
#        154870
#        168495
#        180883
#        193208
#        207895
#        220845
#        235308
#        248508
#        261370
#
# Disc length: 3666 seconds
#
# Revision: 4
# Processed by: cddbd v1.5.2PL0 Copyright (c) Steve Scherf et al.
# Submitted via: ExactAudioCopy v0.95b4
#
DISCID=1b0e5014
DTITLE=Alex Bollard - Back To The 60's
DYEAR=1900
DGENRE=Instrumental
TTITLE0=Apache
TTITLE1=Shindig
TTITLE2=Happy Together
TTITLE3=Atlantis
TTITLE4=Walk, Don't Run
TTITLE5=Forty Miles Of Bad Road
TTITLE6=Rebel Rouser
TTITLE7=Peter Gunn
TTITLE8=Wonderful Land
TTITLE9=Hawaii Five-O
TTITLE10=Because They Are Young
TTITLE11=Guitar Tango
TTITLE12=Spinning Wheel
TTITLE13=Dance On
TTITLE14=F.B.I.
TTITLE15=Foot Tapper
TTITLE16=Time Of The Season
TTITLE17=Kon Tiki
TTITLE18=C.A.I.
TTITLE19=Sunset Trail
EXTD=
EXTT0=
EXTT1=
EXTT2=
EXTT3=
EXTT4=
EXTT5=
EXTT6=
EXTT7=
EXTT8=
EXTT9=
EXTT10=
EXTT11=
EXTT12=
EXTT13=
EXTT14=
EXTT15=
EXTT16=
EXTT17=
EXTT18=
EXTT19=
PLAYORDER=
